# xmcd
#
# Track frame offsets:
#	150
#	19030
#	32853
#	46495
#	62824
#	75138
#	86176
#	102088
#	119412
#	131219
#	142048
#	154549
#	164621
#	181721
#	195007
#	207736
#	221000
#	233706
#	244864
#	260571
#	277386
#	299588
#
# Disc length: 4170 seconds
# Revision: 0
# Processed by: cddbd v1.5.2PL0 Copyright (c) Steve Scherf et al.
# Submitted via: dBpowerAMP V12.0
#
DISCID=4b104816
DTITLE=Various Artist - Now That's What I Call Country
DYEAR=2017
DGENRE=Country
TTITLE0=Dolly Parton and Kenny Rogers - Islands In The Stream
TTITLE1=Glen Campbell - Wichita Lineman
TTITLE2=John Denver - Annie's Song
TTITLE3=Elvis Presley - Green, Green Grass Of Home
TTITLE4=Patsy Cline feat. The Jordanaires - Crazy
TTITLE5=Roy Orbison - Only The Lonely (Know The Way I Feel)
TTITLE6=Billie Jo Spears - Blanket On The Ground
TTITLE7=Alan Jackson and Jimmy Buffett - It's Five O' Clock Somewhere
TTITLE8=Crystal Gayle - Don't It Make My Brown Eyes Blue
TTITLE9=Jim Reeves - Welcome To My World
TTITLE10=Hank Williams - I'm So Lonesome I Could Cry
TTITLE11=George Hamilton IV - Abilene
TTITLE12=Carrie Underwood - Jesus, Take The Wheel
TTITLE13=Glen Campbell - Gentle On My Mind
TTITLE14=Jerry Reed - East Bound And Down
TTITLE15=Hank Williams With His Drifting Cowboys - Hey Good Lookin
TTITLE16=Johnny Cash - Folsom Prison Blues
TTITLE17=Willie Nelson - On The Road Again
TTITLE18=Smokie - Living Next Door To Alice
TTITLE19=The Shires - Nashville Grey Skies
TTITLE20=Lee Ann Womack - I Hope You Dance
TTITLE21=Dolly Parton - I Will Always Love You
EXTD=
EXTT0=
EXTT1=
EXTT2=
EXTT3=
EXTT4=
EXTT5=
EXTT6=
EXTT7=
EXTT8=
EXTT9=
EXTT10=
EXTT11=
EXTT12=
EXTT13=
EXTT14=
EXTT15=
EXTT16=
EXTT17=
EXTT18=
EXTT19=
EXTT20=
EXTT21=
PLAYORDER=
